<svg width="49" height="49" viewBox="0 0 49 49" fill="none" xmlns="http://www.w3.org/2000/svg">
<path fill-rule="evenodd" clip-rule="evenodd" d="M33.2675 32.4134C33.2949 32.3587 33.3313 32.3075 33.3769 32.2619L34.2813 31.3575C34.509 31.1298 34.8781 31.1298 35.1058 31.3575L41.2558 37.5075C41.2785 37.5302 41.2993 37.5547 41.3179 37.5809C41.8858 38.3758 41.9172 39.1772 41.7375 39.8252C41.5651 40.4471 41.2034 40.9202 40.9705 41.1531C40.7367 41.3868 40.2695 41.742 39.6523 41.906C39.0086 42.0772 38.2189 42.0329 37.4297 41.4692C37.4035 41.4505 37.379 41.4297 37.3563 41.407L31.2063 35.257C30.9786 35.0293 30.9786 34.6602 31.2063 34.4325L32.422 33.2168L28.6968 29.4917C28.0064 28.9329 27.2845 27.8448 27.1533 26.3257C27.0194 24.7749 27.5038 22.8289 29.1587 20.5721C32.1519 16.4906 31.6818 12.932 31.132 11.6681L28.7245 9.26062L26.4235 11.5616C26.1958 11.7893 25.8267 11.7893 25.599 11.5616L23.8407 9.80327L9.47118 24.1728L12.8069 27.5085L27.1764 13.139L26.6843 12.6469C26.4566 12.4192 26.4566 12.05 26.6843 11.8224C26.912 11.5947 27.2811 11.5947 27.5088 11.8224L28.4132 12.7268C28.6409 12.9544 28.6409 13.3236 28.4132 13.5513L13.2192 28.7453C12.9915 28.973 12.6223 28.973 12.3947 28.7453L8.23439 24.585C8.00671 24.3574 8.00671 23.9882 8.2344 23.7605L10.979 21.0159L9.50746 19.5444C9.22285 19.2597 9.22285 18.7983 9.50746 18.5137C9.79206 18.2291 10.2535 18.2291 10.5381 18.5137L12.0097 19.9853L13.215 18.7799L11.2014 16.7663C10.9168 16.4817 10.9168 16.0202 11.2014 15.7356C11.486 15.451 11.9475 15.451 12.2321 15.7356L14.2457 17.7492L15.476 16.5189L12.9012 13.944C12.6166 13.6594 12.6166 13.198 12.9012 12.9134C13.1858 12.6288 13.6472 12.6288 13.9318 12.9134L16.5067 15.4882L17.7432 14.2518L15.7295 12.2381C15.4449 11.9535 15.4449 11.4921 15.7295 11.2075C16.0142 10.9229 16.4756 10.9229 16.7602 11.2075L18.7738 13.2211L20.0231 11.9718L18.5516 10.5003C18.267 10.2156 18.267 9.75421 18.5516 9.4696C18.8362 9.185 19.2976 9.185 19.5822 9.4696L21.0538 10.9412L23.4284 8.56649C23.6561 8.33881 24.0253 8.33881 24.2529 8.56649L26.0113 10.3248L28.3122 8.02385C28.5399 7.79616 28.9091 7.79616 29.1367 8.02385L32.0308 10.9179C32.0776 10.9647 32.116 11.019 32.1445 11.0787C32.9062 12.6712 33.4016 16.7582 30.099 21.2617C28.5705 23.3461 28.2107 25.0177 28.315 26.2254C28.4202 27.444 29.0008 28.2463 29.4475 28.599C29.4654 28.6131 29.4824 28.6282 29.4985 28.6443L33.2675 32.4134ZM38.1446 40.5463L32.4431 34.8448L33.6588 33.6291C33.7627 33.5252 33.8192 33.3918 33.8282 33.2559C33.9642 33.2468 34.0975 33.1904 34.2014 33.0865L34.6936 32.5943L40.395 38.2957C40.706 38.7523 40.7099 39.1675 40.6139 39.5136C40.508 39.8953 40.2749 40.1997 40.146 40.3285C40.018 40.4565 39.7235 40.6805 39.3528 40.7791C39.0176 40.8682 38.6064 40.8614 38.1446 40.5463Z" fill="#0593FA"/>
<path d="M12.3976 12.3475C12.6822 12.0629 12.6822 11.6014 12.3976 11.3168L10.6827 9.60192C10.3981 9.31732 9.93663 9.31732 9.65202 9.60192C9.36742 9.88653 9.36742 10.348 9.65202 10.6326L11.3669 12.3475C11.6515 12.6321 12.113 12.6321 12.3976 12.3475Z" fill="#0593FA"/>
<path d="M10.8601 15.3442C11.1447 15.0596 11.1447 14.5982 10.8601 14.3136L9.48812 12.9416C9.20352 12.657 8.74208 12.657 8.45747 12.9416C8.17287 13.2262 8.17287 13.6877 8.45747 13.9723L9.82941 15.3442C10.114 15.6288 10.5755 15.6288 10.8601 15.3442Z" fill="#0593FA"/>
<path d="M15.3882 10.8161C15.6728 10.5315 15.6728 10.07 15.3882 9.78542L14.0163 8.41349C13.7317 8.12888 13.2702 8.12888 12.9856 8.41349C12.701 8.6981 12.701 9.15953 12.9856 9.44414L14.3576 10.8161C14.6422 11.1007 15.1036 11.1007 15.3882 10.8161Z" fill="#0593FA"/>
<path d="M9.28478 18.3288C9.00017 18.6135 8.53873 18.6135 8.25413 18.3288L7.21345 17.2882C6.92885 17.0036 6.92885 16.5421 7.21345 16.2575C7.49806 15.9729 7.9595 15.9729 8.2441 16.2575L9.28478 17.2982C9.56938 17.5828 9.56938 18.0442 9.28478 18.3288Z" fill="#0593FA"/>
<path d="M18.3288 9.28477C18.0442 9.56938 17.5828 9.56938 17.2982 9.28477L16.2575 8.2441C15.9729 7.9595 15.9729 7.49806 16.2575 7.21346C16.5421 6.92885 17.0036 6.92885 17.2882 7.21346L18.3288 8.25413C18.6135 8.53873 18.6135 9.00017 18.3288 9.28477Z" fill="#0593FA"/>
</svg>
